{
	"asset":{
		"generator":"Khronos glTF Blender I/O v3.5.30",
		"version":"2.0"
	},
	"scene":0,
	"scenes":[
		{
			"name":"Scene",
			"nodes":[
				0
			]
		}
	],
	"nodes":[
		{
			"mesh":0,
			"name":"Cube",
			"translation":[
				0,
				1,
				0
			]
		}
	],
	"materials":[
		{
			"doubleSided":true,
			"name":"Material",
			"pbrMetallicRoughness":{
				"baseColorTexture":{
					"index":0
				},
				"metallicFactor":0,
				"roughnessFactor":0.5
			}
		}
	],
	"meshes":[
		{
			"name":"Cube",
			"primitives":[
				{
					"attributes":{
						"POSITION":0,
						"TEXCOORD_0":1,
						"NORMAL":2
					},
					"indices":3,
					"material":0
				}
			]
		}
	],
	"textures":[
		{
			"sampler":0,
			"source":0
		}
	],
	"images":[
		{
			"bufferView":4,
			"mimeType":"image/png",
			"name":"brentnewhall_a_texture_map_of_an_alien_design_362175bf-29db-434a-a045-41b73e661ce6"
		}
	],
	"accessors":[
		{
			"bufferView":0,
			"componentType":5126,
			"count":89,
			"max":[
				1.25,
				1.5,
				1.25
			],
			"min":[
				-1.25,
				-1,
				-1.25
			],
			"type":"VEC3"
		},
		{
			"bufferView":1,
			"componentType":5126,
			"count":89,
			"type":"VEC2"
		},
		{
			"bufferView":2,
			"componentType":5126,
			"count":89,
			"type":"VEC3"
		},
		{
			"bufferView":3,
			"componentType":5123,
			"count":144,
			"type":"SCALAR"
		}
	],
	"bufferViews":[
		{
			"buffer":0,
			"byteLength":1068,
			"byteOffset":0,
			"target":34962
		},
		{
			"buffer":0,
			"byteLength":712,
			"byteOffset":1068,
			"target":34962
		},
		{
			"buffer":0,
			"byteLength":1068,
			"byteOffset":1780,
			"target":34962
		},
		{
			"buffer":0,
			"byteLength":288,
			"byteOffset":2848,
			"target":34963
		},
		{
			"buffer":0,
			"byteLength":2203650,
			"byteOffset":3136
		}
	],
	"samplers":[
		{
			"magFilter":9729,
			"minFilter":9987
		}
	],
	"buffers":[
		{
			"byteLength":2206788,
			"uri":"data:application/octet-stream;base64,"
		}
	]
}
