{
	"asset":{
		"generator":"Khronos glTF Blender I/O v3.5.30",
		"version":"2.0"
	},
	"scene":0,
	"scenes":[
		{
			"name":"Scene",
			"nodes":[
				0
			]
		}
	],
	"nodes":[
		{
			"mesh":0,
			"name":"Plane.001",
			"scale":[
				5,
				1,
				5
			]
		}
	],
	"materials":[
		{
			"doubleSided":true,
			"name":"Material",
			"pbrMetallicRoughness":{
				"baseColorTexture":{
					"index":0
				},
				"metallicFactor":0,
				"roughnessFactor":0.5
			}
		}
	],
	"meshes":[
		{
			"name":"Plane.001",
			"primitives":[
				{
					"attributes":{
						"POSITION":0,
						"TEXCOORD_0":1,
						"NORMAL":2
					},
					"indices":3,
					"material":0
				}
			]
		}
	],
	"textures":[
		{
			"sampler":0,
			"source":0
		}
	],
	"images":[
		{
			"bufferView":4,
			"mimeType":"image/jpeg",
			"name":"Mountain Rock-031-medium-square"
		}
	],
	"accessors":[
		{
			"bufferView":0,
			"componentType":5126,
			"count":46564,
			"max":[
				1,
				0.7849327325820923,
				1
			],
			"min":[
				-1,
				-1.1827659684993108e-10,
				-1
			],
			"type":"VEC3"
		},
		{
			"bufferView":1,
			"componentType":5126,
			"count":46564,
			"type":"VEC2"
		},
		{
			"bufferView":2,
			"componentType":5126,
			"count":46564,
			"type":"VEC3"
		},
		{
			"bufferView":3,
			"componentType":5123,
			"count":98304,
			"type":"SCALAR"
		}
	],
	"bufferViews":[
		{
			"buffer":0,
			"byteLength":558768,
			"byteOffset":0,
			"target":34962
		},
		{
			"buffer":0,
			"byteLength":372512,
			"byteOffset":558768,
			"target":34962
		},
		{
			"buffer":0,
			"byteLength":558768,
			"byteOffset":931280,
			"target":34962
		},
		{
			"buffer":0,
			"byteLength":196608,
			"byteOffset":1490048,
			"target":34963
		},
		{
			"buffer":0,
			"byteLength":1301040,
			"byteOffset":1686656
		}
	],
	"samplers":[
		{
			"magFilter":9729,
			"minFilter":9987
		}
	],
	"buffers":[
		{
			"byteLength":2987696,
			"uri":"data:application/octet-stream;base64,"
		}
	]
}
