{
	"asset":{
		"generator":"Khronos glTF Blender I/O v3.5.30",
		"version":"2.0"
	},
	"scene":0,
	"scenes":[
		{
			"name":"Scene",
			"nodes":[
				0
			]
		}
	],
	"nodes":[
		{
			"mesh":0,
			"name":"Sphere",
			"translation":[
				0,
				1,
				0
			]
		}
	],
	"materials":[
		{
			"doubleSided":true,
			"name":"Material",
			"pbrMetallicRoughness":{
				"baseColorTexture":{
					"index":0
				},
				"metallicFactor":0,
				"roughnessFactor":0.5
			}
		}
	],
	"meshes":[
		{
			"name":"Sphere",
			"primitives":[
				{
					"attributes":{
						"POSITION":0,
						"TEXCOORD_0":1,
						"NORMAL":2
					},
					"indices":3,
					"material":0
				}
			]
		}
	],
	"textures":[
		{
			"sampler":0,
			"source":0
		}
	],
	"images":[
		{
			"bufferView":4,
			"mimeType":"image/png",
			"name":"monster1"
		}
	],
	"accessors":[
		{
			"bufferView":0,
			"componentType":5126,
			"count":8064,
			"max":[
				0.9999998807907104,
				1,
				0.9999997615814209
			],
			"min":[
				-0.9999997019767761,
				-1,
				-1
			],
			"type":"VEC3"
		},
		{
			"bufferView":1,
			"componentType":5126,
			"count":8064,
			"type":"VEC2"
		},
		{
			"bufferView":2,
			"componentType":5126,
			"count":8064,
			"type":"VEC3"
		},
		{
			"bufferView":3,
			"componentType":5123,
			"count":11904,
			"type":"SCALAR"
		}
	],
	"bufferViews":[
		{
			"buffer":0,
			"byteLength":96768,
			"byteOffset":0,
			"target":34962
		},
		{
			"buffer":0,
			"byteLength":64512,
			"byteOffset":96768,
			"target":34962
		},
		{
			"buffer":0,
			"byteLength":96768,
			"byteOffset":161280,
			"target":34962
		},
		{
			"buffer":0,
			"byteLength":23808,
			"byteOffset":258048,
			"target":34963
		},
		{
			"buffer":0,
			"byteLength":1802240,
			"byteOffset":281856
		}
	],
	"samplers":[
		{
			"magFilter":9729,
			"minFilter":9987
		}
	],
	"buffers":[
		{
			"byteLength":2084096,
			"uri":"data:application/octet-stream;base64,"
		}
	]
}
